<svg height="512pt" viewBox="0 0 512 512" width="512pt" xmlns="http://www.w3.org/2000/svg" xmlns:xlink="http://www.w3.org/1999/xlink"><linearGradient id="a" gradientUnits="userSpaceOnUse" x1="74.9807" x2="437.0193" y1="74.9807" y2="437.0193"><stop offset="0" stop-color="#54a0c8"/><stop offset="1" stop-color="#275d86"/></linearGradient><linearGradient id="b"><stop offset="0" stop-color="#b0ffc7"/><stop offset="1" stop-color="#6dd48b"/></linearGradient><linearGradient id="c" gradientUnits="userSpaceOnUse" x1="327.3809" x2="398.1328" xlink:href="#b" y1="255.7168" y2="326.4688"/><linearGradient id="d" gradientUnits="userSpaceOnUse" x1="213.5488" x2="298.4512" xlink:href="#b" y1="255.7168" y2="340.6191"/><linearGradient id="e" gradientUnits="userSpaceOnUse" x1="106.792" x2="191.6943" xlink:href="#b" y1="248.6416" y2="333.5439"/><linearGradient id="f" gradientUnits="userSpaceOnUse" x1="166.0664" x2="345.9336" y1="236.5352" y2="416.4023"><stop offset="0" stop-color="#d0afa2"/><stop offset="1" stop-color="#a0836b"/></linearGradient><linearGradient id="g" gradientUnits="userSpaceOnUse" x1="158.834" x2="353.166" y1="281.502" y2="475.834"><stop offset="0" stop-color="#a0836b"/><stop offset="1" stop-color="#80542f"/></linearGradient><linearGradient id="h" gradientUnits="userSpaceOnUse" x1="156.4756" x2="355.5244" y1="66.2588" y2="265.3076"><stop offset="0" stop-color="#fff7d3"/><stop offset="1" stop-color="#ffeea6"/></linearGradient><path d="m512 256c0 141.386719-114.613281 256-256 256s-256-114.613281-256-256 114.613281-256 256-256 256 114.613281 256 256zm0 0" fill="url(#a)"/><path d="m417 260.433594v47.167968l-94.335938 28.300782v-75.46875zm0 0" fill="url(#c)"/><path d="m256 260.433594h-47.167969v75.46875h94.335938v-75.46875zm0 0" fill="url(#d)"/><path d="m189.335938 260.433594v75.46875l-94.335938-28.300782v-47.167968zm0 0" fill="url(#e)"/><path d="m417 307.601562h-322v37.734376l143.046875 25.703124-.914063 3.226563 9.957032-1.601563 8.910156 1.601563v-3.035156l161-25.894531zm0 0" fill="url(#f)"/><path d="m256 345.335938h-161v66.664062h322v-66.664062zm0 0" fill="url(#g)"/><path d="m256 90h-123.265625v151.566406h246.53125v-151.566406zm0 0" fill="url(#h)"/><g fill="#ffdf5e"><path d="m189.648438 90h18.867187v37.734375h-18.867187zm0 0"/><path d="m246.566406 90h18.867188v37.734375h-18.867188zm0 0"/><path d="m303.480469 90h18.867187v37.734375h-18.867187zm0 0"/></g><path d="m256 108.867188h-104.398438v113.832031h208.796876v-113.832031zm0 0" fill="#fff"/></svg>